<svg width="1263" height="374" xmlns="http://www.w3.org/2000/svg" xmlns:xlink="http://www.w3.org/1999/xlink" overflow="hidden"><defs><clipPath id="clip0"><path d="M36 53 1299 53 1299 427 36 427Z" fill-rule="evenodd" clip-rule="evenodd"/></clipPath></defs><g clip-path="url(#clip0)" transform="translate(-36 -53)"><path d="M560 71.0004C560 62.1636 567.164 55 576 55L759 55C767.836 55 775 62.1636 775 71.0004L775 135C775 143.836 767.836 151 759 151L576 151C567.164 151 560 143.836 560 135Z" stroke="#2F528F" stroke-width="2" stroke-miterlimit="8" fill="#FFFFFF" fill-rule="evenodd"/><text font-family="Calibri,Calibri_MSFontService,sans-serif" font-weight="400" font-size="27" transform="translate(586.423 112)">Metaheuristics</text><path d="M232 196.333C232 189.522 237.522 184 244.333 184L451.667 184C458.478 184 464 189.522 464 196.333L464 245.667C464 252.478 458.478 258 451.667 258L244.333 258C237.522 258 232 252.478 232 245.667Z" stroke="#548235" stroke-width="2" stroke-miterlimit="8" fill="#FFFFFF" fill-rule="evenodd"/><text font-family="Calibri,Calibri_MSFontService,sans-serif" font-weight="400" font-size="27" transform="translate(284.943 214)">Single-<tspan x="72.6667" y="0">state</tspan><tspan x="5.26001" y="32">algorithms</tspan></text><path d="M871 195.334C871 188.522 876.522 183 883.334 183L1089.67 183C1096.48 183 1102 188.522 1102 195.334L1102 244.666C1102 251.478 1096.48 257 1089.67 257L883.334 257C876.522 257 871 251.478 871 244.666Z" stroke="#7030A0" stroke-width="2" stroke-miterlimit="8" fill="#FFFFFF" fill-rule="evenodd"/><text font-family="Calibri,Calibri_MSFontService,sans-serif" font-weight="400" font-size="27" transform="translate(891.356 213)">Population<tspan x="117.22" y="0">-</tspan><tspan x="125.387" y="0">based</tspan><tspan x="37.2" y="32">algorithms</tspan></text><path d="M38 339.167C38 329.686 45.6861 322 55.1673 322L640.833 322C650.314 322 658 329.686 658 339.167L658 407.833C658 417.314 650.314 425 640.833 425L55.1673 425C45.6861 425 38 417.314 38 407.833Z" stroke="#548235" stroke-width="2" stroke-miterlimit="8" fill="#E2F0D9" fill-rule="evenodd"/><path d="M55 350.333C55 343.522 60.5219 338 67.3335 338L225.667 338C232.478 338 238 343.522 238 350.333L238 399.667C238 406.478 232.478 412 225.667 412L67.3335 412C60.5219 412 55 406.478 55 399.667Z" stroke="#548235" stroke-width="2" stroke-miterlimit="8" fill="#FFFFFF" fill-rule="evenodd"/><text font-family="Calibri,Calibri_MSFontService,sans-serif" font-weight="400" font-size="27" transform="translate(79.2353 384)">Hill-<tspan x="43.3333" y="0">climbing</tspan></text><path d="M458 350.333C458 343.522 463.522 338 470.333 338L628.667 338C635.478 338 641 343.522 641 350.333L641 399.667C641 406.478 635.478 412 628.667 412L470.333 412C463.522 412 458 406.478 458 399.667Z" stroke="#548235" stroke-width="2" stroke-miterlimit="8" fill="#FFFFFF" fill-rule="evenodd"/><text font-family="Calibri,Calibri_MSFontService,sans-serif" font-weight="400" font-size="27" transform="translate(484.98 384)">Tabu <tspan x="57.7467" y="0">search</tspan></text><path d="M257 350.333C257 343.522 262.522 338 269.333 338L427.667 338C434.478 338 440 343.522 440 350.333L440 399.667C440 406.478 434.478 412 427.667 412L269.333 412C262.522 412 257 406.478 257 399.667Z" stroke="#548235" stroke-width="2" stroke-miterlimit="8" fill="#FFFFFF" fill-rule="evenodd"/><text font-family="Calibri,Calibri_MSFontService,sans-serif" font-weight="400" font-size="27" transform="translate(293.713 368)">Simulated<tspan x="0.0666809" y="32">Annealing</tspan></text><path d="M676 339.167C676 329.686 683.686 322 693.167 322L1279.83 322C1289.31 322 1297 329.686 1297 339.167L1297 407.833C1297 417.314 1289.31 425 1279.83 425L693.167 425C683.686 425 676 417.314 676 407.833Z" stroke="#7030A0" stroke-width="2" stroke-miterlimit="8" fill="#CCCCFF" fill-rule="evenodd"/><path d="M694 350.333C694 343.522 699.522 338 706.333 338L864.667 338C871.478 338 877 343.522 877 350.333L877 399.667C877 406.478 871.478 412 864.667 412L706.333 412C699.522 412 694 406.478 694 399.667Z" stroke="#7030A0" stroke-width="2" stroke-miterlimit="8" fill="#FFFFFF" fill-rule="evenodd"/><text font-family="Calibri,Calibri_MSFontService,sans-serif" font-weight="400" font-size="27" transform="translate(734.361 368)">Evolution <tspan x="-2.89996" y="32">Strategies</tspan></text><path d="M1096 350.333C1096 343.522 1101.52 338 1108.33 338L1266.67 338C1273.48 338 1279 343.522 1279 350.333L1279 399.667C1279 406.478 1273.48 412 1266.67 412L1108.33 412C1101.52 412 1096 406.478 1096 399.667Z" stroke="#7030A0" stroke-width="2" stroke-miterlimit="8" fill="#FFFFFF" fill-rule="evenodd"/><text font-family="Calibri,Calibri_MSFontService,sans-serif" font-weight="400" font-size="27" transform="translate(1128.63 368)">Ant<tspan x="44.2534" y="0">Colony </tspan><tspan x="-10.9667" y="32">Optimization</tspan></text><path d="M895 350.333C895 343.522 900.522 338 907.333 338L1065.67 338C1072.48 338 1078 343.522 1078 350.333L1078 399.667C1078 406.478 1072.48 412 1065.67 412L907.333 412C900.522 412 895 406.478 895 399.667Z" stroke="#7030A0" stroke-width="2" stroke-miterlimit="8" fill="#FFFFFF" fill-rule="evenodd"/><text font-family="Calibri,Calibri_MSFontService,sans-serif" font-weight="400" font-size="27" transform="translate(944.452 368)">Genetic <tspan x="-11.98" y="32">Algorithm</tspan></text><path d="M0 0 0.000314961 64.6295" stroke="#385723" stroke-width="6" stroke-miterlimit="8" fill="none" fill-rule="evenodd" transform="matrix(-1 -8.74228e-08 -8.74228e-08 1 348 258)"/><path d="M986 257 986 322.524" stroke="#7030A0" stroke-width="6" stroke-miterlimit="8" fill="none" fill-rule="evenodd"/><path d="M464 221 664.918 221" stroke="#385723" stroke-width="6" stroke-miterlimit="8" fill="none" fill-rule="evenodd"/><path d="M0 0 200.396 0.894278" stroke="#7030A0" stroke-width="6" stroke-miterlimit="8" fill="none" fill-rule="evenodd" transform="matrix(1 0 0 -1 670 220.894)"/><path d="M0 0 0.000104987 73.3163" stroke="#203864" stroke-width="6" stroke-miterlimit="8" fill="none" fill-rule="evenodd" transform="matrix(1 0 0 -1 667 224.316)"/></g></svg>